<?xml version="1.0" encoding="UTF-8"?>
<!DOCTYPE svg PUBLIC "-//W3C//DTD SVG 1.1//EN" "http://www.w3.org/Graphics/SVG/1.1/DTD/svg11.dtd">
<svg version="1.1" xmlns="http://www.w3.org/2000/svg" xmlns:xlink="http://www.w3.org/1999/xlink" x="0" y="0" width="900" height="900" viewBox="0, 0, 600, 600">
  <g id="Layer_1">
    <path d="M73.548,478.368 C60.271,491.646 60.271,513.174 73.548,526.452 C86.826,539.729 108.354,539.729 121.632,526.452 L526.452,121.632 C539.729,108.354 539.729,86.826 526.452,73.548 C513.174,60.271 491.646,60.271 478.368,73.548 L73.548,478.368" fill="#FFFFFF"/>
    <path d="M526.452,478.368 C539.729,491.646 539.729,513.174 526.452,526.452 C513.174,539.729 491.646,539.729 478.368,526.452 L73.548,121.632 C60.271,108.354 60.271,86.826 73.548,73.548 C86.826,60.271 108.354,60.271 121.632,73.548 L526.452,478.368" fill="#FFFFFF"/>
  </g>
</svg>
