<?xml version="1.0" encoding="UTF-8"?>
<!DOCTYPE svg PUBLIC "-//W3C//DTD SVG 1.1//EN" "http://www.w3.org/Graphics/SVG/1.1/DTD/svg11.dtd">
<svg version="1.1" xmlns="http://www.w3.org/2000/svg" xmlns:xlink="http://www.w3.org/1999/xlink" x="0" y="0" width="900" height="900" viewBox="0, 0, 600, 600">
  <g id="Layer_1">
    <g display="none">
      <g>
        <path d="M128.84,114.5 L128.84,165.5 C114.497,165.312 103.699,154.213 103.34,140 C103.34,125.917 114.757,114.5 128.84,114.5 z" fill="#FFFFFF"/>
        <path d="M128.84,114.5 L128.84,165.5 C114.497,165.312 103.699,154.213 103.34,140 C103.34,125.917 114.757,114.5 128.84,114.5 z" fill-opacity="0" stroke="#000000" stroke-width="1"/>
      </g>
      <g>
        <path d="M472.16,114.5 L472.16,165.5 C486.503,165.312 497.301,154.213 497.66,140 C497.66,125.917 486.243,114.5 472.16,114.5 z" fill="#FFFFFF"/>
        <path d="M472.16,114.5 L472.16,165.5 C486.503,165.312 497.301,154.213 497.66,140 C497.66,125.917 486.243,114.5 472.16,114.5 z" fill-opacity="0" stroke="#000000" stroke-width="1"/>
      </g>
      <g>
        <path d="M128.84,114.5 L472.16,114.5 L472.16,165.5 L128.84,165.5 L128.84,114.5 z" fill="#FFFFFF"/>
        <path d="M128.84,114.5 L472.16,114.5 L472.16,165.5 L128.84,165.5 L128.84,114.5 z" fill-opacity="0" stroke="#000000" stroke-width="1"/>
      </g>
    </g>
    <path d="M125.694,204.179 C111.971,201.89 103.83,192.665 102.84,178.84 C102.84,164.757 114.257,153.34 128.34,153.34 L471.66,153.34 C485.743,153.34 497.16,164.757 497.16,178.84 C496.801,193.053 486.003,204.152 471.66,204.34 L128.34,204.34 L125.694,204.179 z" fill="#494949"/>
    <path d="M125.694,325.339 C111.971,323.05 103.83,313.825 102.84,300 C102.84,285.917 114.257,274.5 128.34,274.5 L471.66,274.5 C485.743,274.5 497.16,285.917 497.16,300 C496.801,314.213 486.003,325.312 471.66,325.5 L128.34,325.5 L125.694,325.339 z" fill="#494949"/>
    <path d="M125.694,446.499 C111.971,444.21 103.83,434.985 102.84,421.16 C102.84,407.077 114.257,395.66 128.34,395.66 L471.66,395.66 C485.743,395.66 497.16,407.077 497.16,421.16 C496.801,435.373 486.003,446.472 471.66,446.66 L128.34,446.66 L125.694,446.499 z" fill="#494949"/>
  </g>
</svg>
